<svg id="Calque_1" data-name="Calque 1" xmlns="http://www.w3.org/2000/svg" viewBox="0 0 463.64 300"><defs><style>.cls-1{fill:#282846;}</style></defs><path class="cls-1" d="M422,292.92,228.9,99.79a4.56,4.56,0,0,0-7.78,3.22l0,193.13a4.55,4.55,0,0,0,4.55,4.55H418.8a4.55,4.55,0,0,0,3.22-7.77Zm-191.76-1.34v-6.72h10.19a2.07,2.07,0,0,0,0-4.14H230.25v-8.41h7.3a1.54,1.54,0,1,0,0-3.08h-7.3v-8.94h7.3a1.55,1.55,0,0,0,0-3.09h-7.3v-8.93h7.3a1.55,1.55,0,0,0,0-3.09h-7.3v-8.41h10.19a2.07,2.07,0,1,0,0-4.14H230.25v-8.41h7.3a1.55,1.55,0,0,0,0-3.09h-7.3V212.2h7.3a1.55,1.55,0,0,0,0-3.09h-7.31v-8.94h7.31a1.54,1.54,0,0,0,0-3.08h-7.31v-8.41h10.2a2.07,2.07,0,0,0,0-4.14h-10.2v-8.41h7.31a1.55,1.55,0,0,0,0-3.09h-7.31V164.1h7.31a1.54,1.54,0,0,0,0-3.08h-7.31v-8.94h7.31a1.54,1.54,0,0,0,0-3.08h-7.31v-8.42h10.2a2.07,2.07,0,1,0,0-4.13H230.23V114L407.8,291.58Z"/><path class="cls-1" d="M258.51,263.43h81.08a1.91,1.91,0,0,0,1.35-3.27l-81.09-81.09a1.91,1.91,0,0,0-3.26,1.36v81.09A1.92,1.92,0,0,0,258.51,263.43ZM335,259.6H260.42V185.05Z"/><path class="cls-1" d="M288.49,2.93A3.64,3.64,0,0,0,284.18.1C217.51,14,174.67,48.1,147.12,85.67H130V100.6l-104,33.32a13.72,13.72,0,1,0,1.11,3.47l102.85-33v6.75h.8a265.7,265.7,0,0,0-17.66,39.43C91.51,211.68,94.61,268.44,94.64,269a3.65,3.65,0,0,0,3.64,3.43h.22a3.65,3.65,0,0,0,3.42-3.86c0-.55-3-56,18.2-115.75A262.5,262.5,0,0,1,139,111.18h16.57V96.25l104-33.32a13.72,13.72,0,1,0-1.11-3.47l-102.85,33V86c31.07-40.82,74.6-67.24,130.12-78.78A3.64,3.64,0,0,0,288.49,2.93Z"/><path class="cls-1" d="M446.27,86.62l-8.21,6.53,12.25,1.4-39.76,31.61a13,13,0,0,0-3.54-1.69v-3.7l13-10a1.8,1.8,0,0,0,.71-1.44V51.05a1.77,1.77,0,0,0-.08-.52,1.69,1.69,0,0,0,.08-.39,1.82,1.82,0,0,0-1.82-1.82H407v-14L415.72,43V32.53L403.37,20.18,391,32.53V43l8.71-8.72v14H367.83a1.77,1.77,0,0,0-.92.25l-31,18.22a1.78,1.78,0,0,0-.69.8,1.82,1.82,0,0,0-1.12,1.68v58.31A1.82,1.82,0,0,0,336,129.4h57a12.76,12.76,0,0,0-1.77,3.7H317.28l8.71-8.71H315.5l-12.35,12.36L315.5,149.1H326l-8.71-8.71h73.88a12.75,12.75,0,1,0,24-8.58l39.69-31.56-1.4,12.25,8.22-6.54,2-17.36ZM407,52h7.67L407,57.86Zm0,10.5,10-7.71v53.71l-10,7.71Zm-14.58,63.3H337.77V71.09h54.66Zm1.83-58.31H342L368.33,52h31.39V63.47l-5.23,4A1.89,1.89,0,0,0,394.26,67.45Zm1.82,3.36a1.76,1.76,0,0,0,.2-.09l3.44-2.65v53.71l-3.64,2.8Zm12.74,66h0a5.46,5.46,0,0,1-.47,2.07h0a4.76,4.76,0,0,1-.5.88,1.47,1.47,0,0,1-.1.13,5.72,5.72,0,0,1-.55.65l-.3.25a6.25,6.25,0,0,1-.5.4,5.45,5.45,0,0,1-.53.29,3.48,3.48,0,0,1-.38.2,4.29,4.29,0,0,1-.77.24l-.25.08a5.6,5.6,0,0,1-1.09.11h-.07a5.39,5.39,0,0,1-1.07-.11L402,142a5.78,5.78,0,0,1-.83-.28l-.15-.08a5.66,5.66,0,0,1-.82-.48l-.06,0a4.92,4.92,0,0,1-.76-.68h0a5.38,5.38,0,0,1-.09-7.29h0l0,0a5.33,5.33,0,0,1,.4-.42h0a5.4,5.4,0,0,1,3.65-1.42,5.47,5.47,0,0,1,5.46,5.46c0,.06,0,.11,0,.16Z"/><path class="cls-1" d="M399.72,132.65h0a5.33,5.33,0,0,0-.4.42l0,0h.44Z"/></svg>