<svg id="Calque_1" data-name="Calque 1" xmlns="http://www.w3.org/2000/svg" viewBox="0 0 323.16 300"><defs><style>.cls-1{fill:#282846;}.cls-2{fill:none;}</style></defs><path class="cls-1" d="M4.57,182.94H3.88v-.69a1.16,1.16,0,1,0-2.31,0v3h3a1.15,1.15,0,0,0,0-2.3Z"/><path class="cls-1" d="M48,182.94H44.35a1.15,1.15,0,1,0,0,2.3H48a1.15,1.15,0,0,0,0-2.3Z"/><path class="cls-1" d="M62.43,182.94H58.82a1.15,1.15,0,1,0,0,2.3h3.61a1.15,1.15,0,0,0,0-2.3Z"/><path class="cls-1" d="M55.2,182.94H51.58a1.15,1.15,0,1,0,0,2.3H55.2a1.15,1.15,0,0,0,0-2.3Z"/><path class="cls-1" d="M40.73,182.94H37.12a1.15,1.15,0,1,0,0,2.3h3.61a1.15,1.15,0,1,0,0-2.3Z"/><path class="cls-1" d="M33.5,182.94H29.88a1.15,1.15,0,1,0,0,2.3H33.5a1.15,1.15,0,0,0,0-2.3Z"/><path class="cls-1" d="M19,182.94H15.42a1.15,1.15,0,1,0,0,2.3H19a1.15,1.15,0,1,0,0-2.3Z"/><path class="cls-1" d="M11.8,182.94H8.19a1.15,1.15,0,1,0,0,2.3H11.8a1.15,1.15,0,0,0,0-2.3Z"/><path class="cls-1" d="M26.27,182.94H22.65a1.15,1.15,0,1,0,0,2.3h3.62a1.15,1.15,0,0,0,0-2.3Z"/><path class="cls-1" d="M69.67,182.94H66.05a1.15,1.15,0,1,0,0,2.3h3.62a1.15,1.15,0,0,0,0-2.3Z"/><path class="cls-1" d="M84.13,182.94H80.51a1.15,1.15,0,0,0,0,2.3h3.62a1.15,1.15,0,0,0,0-2.3Z"/><path class="cls-1" d="M76.9,182.94H73.28a1.15,1.15,0,0,0,0,2.3H76.9a1.15,1.15,0,0,0,0-2.3Z"/><path class="cls-1" d="M91.36,182.94H87.75a1.15,1.15,0,1,0,0,2.3h3.61a1.15,1.15,0,1,0,0-2.3Z"/><path class="cls-1" d="M22.65,83.91h3.62a1.15,1.15,0,0,0,0-2.3H22.65a1.15,1.15,0,0,0,0,2.3Z"/><path class="cls-1" d="M48,81.61H44.35a1.15,1.15,0,0,0,0,2.3H48a1.15,1.15,0,0,0,0-2.3Z"/><path class="cls-1" d="M62.43,81.61H58.82a1.15,1.15,0,1,0,0,2.3h3.61a1.15,1.15,0,0,0,0-2.3Z"/><path class="cls-1" d="M76.9,81.61H73.28a1.15,1.15,0,0,0,0,2.3H76.9a1.15,1.15,0,0,0,0-2.3Z"/><path class="cls-1" d="M40.73,81.61H37.12a1.15,1.15,0,1,0,0,2.3h3.61a1.15,1.15,0,1,0,0-2.3Z"/><path class="cls-1" d="M91.36,81.61H87.75a1.15,1.15,0,0,0,0,2.3h3.61a1.15,1.15,0,1,0,0-2.3Z"/><path class="cls-1" d="M84.13,81.61H80.51a1.15,1.15,0,0,0,0,2.3h3.62a1.15,1.15,0,0,0,0-2.3Z"/><path class="cls-1" d="M33.5,81.61H29.88a1.15,1.15,0,0,0,0,2.3H33.5a1.15,1.15,0,0,0,0-2.3Z"/><path class="cls-1" d="M15.42,83.91H19a1.15,1.15,0,0,0,0-2.3H15.42a1.15,1.15,0,1,0,0,2.3Z"/><path class="cls-1" d="M11.8,83.91a1.15,1.15,0,0,0,0-2.3H8.19a1.13,1.13,0,0,0-.91.47l2.05,1.83Z"/><path class="cls-1" d="M69.67,81.61H66.05a1.15,1.15,0,1,0,0,2.3h3.62a1.15,1.15,0,0,0,0-2.3Z"/><path class="cls-1" d="M55.2,81.61H51.58a1.15,1.15,0,0,0,0,2.3H55.2a1.15,1.15,0,0,0,0-2.3Z"/><path class="cls-1" d="M1.57,156.93a1.16,1.16,0,0,0,2.31,0v-3.61a1.16,1.16,0,1,0-2.31,0Z"/><path class="cls-1" d="M1.57,142.47a1.16,1.16,0,0,0,2.31,0v-3.62a1.16,1.16,0,0,0-2.31,0Z"/><path class="cls-1" d="M1.57,135.23a1.16,1.16,0,1,0,2.31,0v-3.61a1.16,1.16,0,1,0-2.31,0Z"/><path class="cls-1" d="M2.73,129.15A1.15,1.15,0,0,0,3.88,128v-3.62a1.16,1.16,0,0,0-2.31,0V128A1.15,1.15,0,0,0,2.73,129.15Z"/><path class="cls-1" d="M1.57,120.37v.4a1.16,1.16,0,0,0,2.31,0v-1.1a4.14,4.14,0,0,1-2.27.71Z"/><path class="cls-1" d="M1.57,171.4a1.16,1.16,0,0,0,2.31,0v-3.62a1.16,1.16,0,0,0-2.31,0Z"/><path class="cls-1" d="M1.57,149.7a1.16,1.16,0,0,0,2.31,0v-3.62a1.16,1.16,0,0,0-2.31,0Z"/><path class="cls-1" d="M1.57,164.16a1.16,1.16,0,1,0,2.31,0v-3.61a1.16,1.16,0,0,0-2.31,0Z"/><path class="cls-1" d="M1.57,178.63a1.16,1.16,0,0,0,2.31,0V175a1.16,1.16,0,0,0-2.31,0Z"/><path class="cls-1" d="M26.87,106.07H27a.82.82,0,0,0,.73-.45.81.81,0,0,0-.19-1L1.37,81.27a.85.85,0,0,0-.55-.2.8.8,0,0,0-.34.07.82.82,0,0,0-.48.77l.79,34.34a.81.81,0,0,0,.59.77h0l.19,0a.82.82,0,0,0,.68-.36c0-.08,4.92-7.3,9.37-11a35.86,35.86,0,0,1,6.29-.52A44.78,44.78,0,0,1,26.87,106.07Z"/><path class="cls-1" d="M68.4,108.81c1.88-2,10.25-2.3,15.81-1.94a1.87,1.87,0,0,0,2-1.72,1.83,1.83,0,0,0-1.72-2C82,103,70,102.46,65.8,106c-4.4-3.14-14.75-2.93-16.93-2.84a1.84,1.84,0,0,0,.15,3.68c5.12-.19,13.14.44,15,2.44a.67.67,0,0,1,.23.62v54.46a6.16,6.16,0,0,1-.29,1.83c-1.89,2-10.23,2.18-15.79,1.82a1.87,1.87,0,0,0-2,1.71,1.83,1.83,0,0,0,1.71,2c.75,0,2.37.14,4.39.14,4.65,0,11.39-.47,14.28-3,3.53,2.5,10.84,2.87,14.74,2.87,1,0,1.74,0,2.17,0a1.85,1.85,0,0,0,1.77-1.92A1.8,1.8,0,0,0,83.34,168c-5.11.2-13.15-.42-15-2.43a.67.67,0,0,1-.23-.62V110.52A5.38,5.38,0,0,1,68.4,108.81Z"/><path class="cls-1" d="M59.71,150.37h-.55a1.53,1.53,0,0,1-1.49-1.58,1.58,1.58,0,0,1,1.58-1.5c3.94.1,5.26-1.18,5.41-1.87a1.53,1.53,0,0,1,1.69-1.33,1.58,1.58,0,0,1,1.36,1.73C67.69,146,67.13,150.37,59.71,150.37Z"/><path class="cls-1" d="M72.65,150.37c-7.42,0-8-4.36-8-4.55a1.54,1.54,0,0,1,3-.39c.16.7,1.44,2,5.41,1.86a1.6,1.6,0,0,1,1.58,1.5,1.55,1.55,0,0,1-1.5,1.58Z"/><path class="cls-1" d="M176.57,61H114.36a2.2,2.2,0,1,1,0-4.4h62.21a2.2,2.2,0,1,1,0,4.4Z"/><path class="cls-1" d="M208.83,208.62H114.36a2.31,2.31,0,1,1,0-4.61h94.47a2.31,2.31,0,1,1,0,4.61Z"/><path class="cls-1" d="M245.7,98H114.36a2.31,2.31,0,1,1,0-4.61H245.7a2.31,2.31,0,1,1,0,4.61Z"/><path class="cls-1" d="M245.7,134.88H114.36a2.31,2.31,0,1,1,0-4.61H245.7a2.31,2.31,0,1,1,0,4.61Z"/><path class="cls-1" d="M245.7,171.75H114.36a2.31,2.31,0,1,1,0-4.61H245.7a2.31,2.31,0,1,1,0,4.61Z"/><path class="cls-1" d="M320.79,245.06a2.44,2.44,0,0,0,1.1-4.58l-91.4-49.95a2.43,2.43,0,0,0-3.53,2.74L252.24,292a2.43,2.43,0,0,0,2.22,1.83h.14a2.43,2.43,0,0,0,2.28-1.57c.09-.25,9.31-24.36,19.69-38.08C282.85,251.42,298.65,245.69,320.79,245.06Z"/><path class="cls-2" d="M321.89,240.48l-91.4-49.95a2.43,2.43,0,0,0-3.53,2.74L252.24,292a2.43,2.43,0,0,0,2.22,1.83h.14a2.43,2.43,0,0,0,2.28-1.57c.09-.25,9.31-24.36,19.69-38.08,6.28-2.71,22.08-8.44,44.22-9.07a2.44,2.44,0,0,0,1.1-4.58Z"/><path class="cls-1" d="M98.23,236.27V11.6H198.44V74a5.76,5.76,0,0,0,5.76,5.76h62.38V202.37l11.52,6.3V74.88c0-.11,0-.22,0-.33a5.76,5.76,0,0,0-1.65-4.65L208.28,1.77A5.77,5.77,0,0,0,203.62.11c-.11,0-.21,0-.32,0H92.47A5.76,5.76,0,0,0,86.7,5.84V242a5.76,5.76,0,0,0,5.77,5.76H233.79l-2.95-11.52ZM210,19.75l48.47,48.46H210Z"/></svg>