<svg id="Calque_1" data-name="Calque 1" xmlns="http://www.w3.org/2000/svg" viewBox="0 0 314.94 300"><defs><style>.cls-1{fill:#282846;}</style></defs><path class="cls-1" d="M287.84,187.46a7.86,7.86,0,1,1,7.86-7.86A7.86,7.86,0,0,1,287.84,187.46Zm0-13.72a5.86,5.86,0,1,0,5.86,5.86A5.87,5.87,0,0,0,287.84,173.74Z"/><path class="cls-1" d="M302.79,84.87H105.28c.26,3.12.55,6.24.87,9.34H302.79A2.81,2.81,0,0,1,305.6,97V262.19a2.81,2.81,0,0,1-2.81,2.8H157c1.51,3.68,2.69,6.76,3.59,9.35h142.2a12.16,12.16,0,0,0,12.15-12.15V97A12.16,12.16,0,0,0,302.79,84.87Z"/><path class="cls-1" d="M268.7,247.56V111.64a1.87,1.87,0,0,0-1.87-1.87H108a457.07,457.07,0,0,0,37,128.08c1.94,4.22,3.69,8.06,5.27,11.58H266.83A1.86,1.86,0,0,0,268.7,247.56Z"/><path class="cls-1" d="M16.13,78.51a1.85,1.85,0,0,0-1.34,1.86A383.81,383.81,0,0,0,53.43,235.62a1.62,1.62,0,0,0,2.17.63,1.53,1.53,0,0,0,.85-2A381.51,381.51,0,0,1,17.57,79.75,1.19,1.19,0,0,0,16.13,78.51Z"/><path class="cls-1" d="M67.88,252.17l-6.23,3.12a1.48,1.48,0,0,0-.77,2,1.64,1.64,0,0,0,2.19.5l6.23-3.15a1.43,1.43,0,0,0,.76-2A1.67,1.67,0,0,0,67.88,252.17Z"/><path class="cls-1" d="M31.4,65.8A299.41,299.41,0,0,1,20.5,30.57a2.56,2.56,0,0,0-2.9-2.11,4.69,4.69,0,0,0-3.36,3.05q-7.68,20-14,40.64A5.19,5.19,0,0,0,0,73.59c0,77,21.74,150.36,60.6,211.56a3.47,3.47,0,0,0,1.62,1.34c.81.39,8.57,3.1,20.76-3.81s13.06-14,13.14-14.78a2.88,2.88,0,0,0-.51-1.86c-39.17-56.6-62.12-125.7-64-199A4.16,4.16,0,0,0,31.4,65.8ZM70.62,241.64Q60.84,246.29,51,251.2A390.18,390.18,0,0,1,7,77.44a6.21,6.21,0,0,0,2.19,0c2.42-.41,5.08-2.59,6.57-3.92A7.06,7.06,0,0,0,21.22,75a2.73,2.73,0,0,0,.41-.1A13.73,13.73,0,0,0,25,73.28,374,374,0,0,0,70.62,241.64Zm-14.2,19.57.41-.21a1.51,1.51,0,0,0,.77-2,1.64,1.64,0,0,0-2.19-.51l-.4.21q-1.34-2.4-2.62-4.83,9.86-5,19.64-9.66,1.31,2.32,2.64,4.64l-.58.28a1.42,1.42,0,0,0-.76,2,1.67,1.67,0,0,0,2.18.49l.59-.29c1,1.73,2.05,3.44,3.1,5.15q-9.81,5-19.7,10.18Q57.94,263.91,56.42,261.21ZM14.5,49.4,18,48.79q3.09,10.31,6.87,20.3v.18a13.78,13.78,0,0,1-3.56,2c-1.62.45-3.56-1-4.12-1.62a1.51,1.51,0,0,0-2.19.19c-.86.87-3.7,3.42-5.61,3.84H9.27A4.74,4.74,0,0,1,7,73.29v-.51Q10.52,61,14.5,49.4ZM78.85,276.62c-5.83,3.21-9.7,3.28-11.33,3.07q-3.33-5.2-6.51-10.54,9.9-5.28,19.71-10.29,3.19,5.1,6.53,10.07C86.63,270.38,84.71,273.41,78.85,276.62Z"/><path class="cls-1" d="M73.62,105.49c1.25-.63,6.41-.14,6-2.91-.19-2.82-5-.35-6.35-.44C71.38,102.48,71.74,105.91,73.62,105.49Z"/><path class="cls-1" d="M89.07,35.68C78.42,21.22,90.11,6,86.18.7a2.7,2.7,0,0,0-3.84.23C60.57,14.46,35.16,75.27,61.66,95.73c2.18,11.37,7.64,67.66,26,116,16.67,49,46.27,90.05,56.79,87.74,8.22-5.27-16.5-46.54-31.87-95C95.48,157,87.7,102.28,89,90.92,104.47,75.85,102,50.42,89.07,35.68Zm-7,58.56q.22,3.06.48,6.11c-1.59.45-1.35,3.29.28,3.23.21,2.29.44,4.59.68,6.88q-6.12,1.26-12.28,2.6c-.66-4.36-1.64-12-2.12-16.35C73.43,95.86,77.76,95,82.06,94.24Zm40,160.18c3.85,9.11,8.15,19.05,11.43,26.84-6.17-6.62-26.21-40-39.23-77.14-14-36.69-20.93-77.1-22.54-87.73q6.09-1.35,12.14-2.63A475,475,0,0,0,122.06,254.42ZM92.78,66.51C93,80.06,81.85,83,81.83,90.91L79,91.43c7.79-12.06,1.7-36.05-.54-26.09.17.21,4.84,16.16-3.39,26.81l-.29.06c-15-18.86-3.41-45.19-6.35-47C65,45.16,58.81,74,71.36,92.85l-2.63.49c-.06-1.81-.61-3.7-2.08-4.42C48.06,78.24,61.29,27.74,78.4,14.77,72.91,36.93,94.44,46.61,92.78,66.51Z"/></svg>