<svg id="Calque_1" data-name="Calque 1" xmlns="http://www.w3.org/2000/svg" viewBox="0 0 116.88 100"><defs><style>.cls-1{fill:#fff;}</style></defs><path class="cls-1" d="M94.74,44.64c.94,0,1.83.06,2.71.12L72.6.36H39.39L70.83,54.83A33.14,33.14,0,0,1,94.74,44.64Z"/><polygon class="cls-1" points="34.68 8.78 0.64 69.56 17.24 100 52.28 39.27 34.68 8.78"/><path class="cls-1" d="M62.63,69.55H44.37L26.82,100H70.05a32.85,32.85,0,0,1-8.52-22.14A31.67,31.67,0,0,1,62.63,69.55Z"/><polygon class="cls-1" points="100.28 72.32 100.28 55.72 89.2 55.72 89.2 72.32 72.6 72.32 72.6 83.39 89.2 83.39 89.2 100 94.74 100 100.28 100 100.28 83.39 116.88 83.39 116.88 72.32 100.28 72.32"/></svg>