<svg id="Calque_1" data-name="Calque 1" xmlns="http://www.w3.org/2000/svg" viewBox="0 0 77.82 100"><defs><style>.cls-1{fill:#fff;}</style></defs><path class="cls-1" d="M76.63,27.91,50,1.27A4,4,0,0,0,47.12.08H4.35A4.05,4.05,0,0,0,.29,4.13V95.28a4.06,4.06,0,0,0,4.06,4.06H73.76a4.06,4.06,0,0,0,4.06-4.06V30.78A4.06,4.06,0,0,0,76.63,27.91ZM49.29,12.05,67,29.71H49.29ZM8.4,91.22v-83H44.56V32.07a2.37,2.37,0,0,0,2.37,2.37H69.7V91.22Z"/><path class="cls-1" d="M14.68,28.24H37a2,2,0,0,0,0-4.06H14.68a2,2,0,0,0,0,4.06Z"/><path class="cls-1" d="M48.62,75.36H14.68a2,2,0,1,0,0,4.06H48.62a2,2,0,0,0,0-4.06Z"/><path class="cls-1" d="M61.86,41.24H14.68a2,2,0,0,0,0,4.06H61.86a2,2,0,1,0,0-4.06Z"/><path class="cls-1" d="M61.86,58.3H14.68a2,2,0,1,0,0,4.06H61.86a2,2,0,0,0,0-4.06Z"/></svg>