<?xml version="1.0" encoding="UTF-8"?> <svg xmlns="http://www.w3.org/2000/svg" width="213" height="56" viewBox="0 0 213 56" fill="none"> <path d="M79.8805 38.6623C79.8805 40.5507 79.8805 41.5742 80.163 41.8354C80.3907 42.0667 80.7626 42.1671 81.8297 42.1671C82.5475 42.1671 83.0856 42.1447 83.4165 41.7519C83.5859 41.558 83.7577 41.1457 83.7832 40.8547C83.7955 40.7338 83.8239 40.6449 83.9318 40.6449C84.0318 40.6449 84.0393 40.7176 84.0393 40.8856C84.0393 41.0518 83.9526 42.1671 83.8369 42.5869C83.7577 42.9132 83.6781 42.9852 82.978 42.9852C81.9833 42.9852 81.2703 42.9571 80.6573 42.9467C80.0471 42.9132 79.5527 42.9028 78.9855 42.9028C78.8342 42.9028 78.5368 42.9028 78.206 42.9132C77.8935 42.9132 77.542 42.9467 77.2601 42.9467C77.0855 42.9467 76.9933 42.9028 76.9933 42.7966C76.9933 42.7261 77.0395 42.6761 77.2087 42.6761C77.4168 42.6761 77.5779 42.6445 77.6984 42.62C77.9809 42.5588 78.0471 42.2379 78.1007 41.8041C78.1653 41.1824 78.1653 40.0143 78.1653 38.6623V36.0673C78.1653 33.8268 78.1653 33.408 78.1421 32.9306C78.1138 32.4381 77.9985 32.1856 77.542 32.0913C77.4451 32.0593 77.2807 32.0453 77.106 32.0453C76.9473 32.0453 76.8652 32.0176 76.8652 31.9161C76.8652 31.815 76.9676 31.7852 77.1675 31.7852C77.8111 31.7852 78.6707 31.8258 79.0398 31.8258C79.3703 31.8258 80.3784 31.7852 80.9086 31.7852C81.0962 31.7852 81.1908 31.815 81.1908 31.9161C81.1908 32.0176 81.1115 32.0453 80.9473 32.0453C80.7912 32.0453 80.5781 32.0593 80.4116 32.0913C80.0471 32.1618 79.9349 32.4245 79.9065 32.9306C79.8805 33.408 79.8805 33.8268 79.8805 36.0673V38.6623Z" fill="#333333"></path> <path d="M89.7292 40.0319C89.6459 40.0319 89.6397 40.0471 89.6087 40.109L88.8846 41.6865C88.747 41.9708 88.6843 42.2631 88.6843 42.4161C88.6843 42.6146 88.8043 42.7316 89.2264 42.7316H89.4187C89.5942 42.7316 89.6226 42.7905 89.6226 42.8558C89.6226 42.9537 89.5485 42.9849 89.4051 42.9849C88.9627 42.9849 88.3311 42.9436 87.9007 42.9436C87.7741 42.9436 87.0449 42.9849 86.3357 42.9849C86.1725 42.9849 86.0891 42.9537 86.0891 42.8558C86.0891 42.7905 86.1408 42.7316 86.2554 42.7316C86.3674 42.7316 86.5166 42.7266 86.6458 42.7266C87.2629 42.6435 87.4957 42.2839 87.7741 41.6865L91.2906 34.2999C91.4513 33.9716 91.5579 33.8213 91.6867 33.8213C91.8963 33.8213 91.954 33.9424 92.0916 34.2017C92.4074 34.8512 94.67 39.6535 95.5252 41.4383C96.0475 42.5043 96.4211 42.6486 96.6765 42.6987C96.8713 42.7266 97.027 42.7316 97.1814 42.7316C97.2934 42.7316 97.3627 42.7787 97.3627 42.8558C97.3627 42.9537 97.2934 42.9849 96.7769 42.9849C96.3094 42.9849 95.3245 42.9849 94.1958 42.9537C93.9405 42.9436 93.7971 42.9436 93.7971 42.8558C93.7971 42.7905 93.8255 42.7525 93.9634 42.7316C94.0525 42.7266 94.1527 42.6146 94.0838 42.4723L93.039 40.109C93.016 40.0471 92.9645 40.0319 92.9014 40.0319H89.7292ZM92.6173 39.3774C92.6774 39.3774 92.6918 39.3515 92.6774 39.3175L91.4057 36.3275C91.3824 36.2916 91.3744 36.2216 91.3397 36.2216C91.2906 36.2216 91.2765 36.2916 91.2562 36.3275L89.956 39.2973C89.9242 39.3515 89.956 39.3774 90.0075 39.3774H92.6173Z" fill="#333333"></path> <path d="M100.814 37.3161C100.814 35.496 100.814 35.1494 100.799 34.7547C100.776 34.351 100.643 34.2257 100.205 34.1007C100.096 34.0737 99.8572 34.0585 99.6567 34.0585C99.5125 34.0585 99.4124 34.0204 99.4124 33.9345C99.4124 33.85 99.5219 33.8213 99.7218 33.8213C100.443 33.8213 101.338 33.85 101.6 33.85C102.296 33.85 103.212 33.8213 103.683 33.8213C106.174 33.8213 106.622 34.9898 106.622 35.6203C106.622 36.5548 105.841 37.2891 105.067 37.7479C106.197 38.0671 107.611 38.9316 107.611 40.3563C107.611 41.6558 106.484 42.9849 103.93 42.9849C103.777 42.9849 103.3 42.9704 102.835 42.9413C102.357 42.9278 101.872 42.9177 101.648 42.9177C101.486 42.9177 101.191 42.9278 100.864 42.9278C100.538 42.9413 100.181 42.96 99.9047 42.96C99.7218 42.96 99.6364 42.9177 99.6364 42.8271C99.6364 42.7744 99.6892 42.6993 99.8572 42.6993C100.049 42.6993 100.219 42.6941 100.337 42.6653C100.62 42.6086 100.708 42.3745 100.752 42.0224C100.814 41.5114 100.814 40.553 100.814 39.4486V37.3161ZM102.611 37.518C102.611 37.6149 102.652 37.6232 102.705 37.6457C102.835 37.6703 103.043 37.6942 103.344 37.6942C103.806 37.6942 104.198 37.6457 104.431 37.4706C104.796 37.2171 105.067 36.7781 105.067 36.193C105.067 35.3831 104.525 34.3818 103.33 34.3818C103.143 34.3818 102.879 34.3818 102.732 34.4064C102.643 34.4199 102.611 34.4788 102.611 34.6166V37.518ZM102.611 41.0724C102.611 41.8604 102.652 42.1135 103.1 42.2623C103.453 42.3984 103.777 42.3984 104.092 42.3984C104.825 42.3984 105.791 42.0335 105.791 40.6974C105.791 40.1379 105.511 39.1909 104.478 38.5567C104.198 38.3752 103.824 38.2437 103.28 38.2437H102.69C102.643 38.2437 102.611 38.2506 102.611 38.3278V41.0724Z" fill="#333333"></path> <path d="M110.686 38.4038C110.686 36.412 112.264 33.8213 116.391 33.8213C119.82 33.8213 121.96 35.5115 121.96 38.1941C121.96 40.8854 119.768 42.9849 116.254 42.9849C112.296 42.9849 110.686 40.4852 110.686 38.4038ZM119.933 38.6272C119.933 36.0406 118.189 34.4302 115.991 34.4302C114.48 34.4302 112.695 35.1609 112.695 38.0475C112.695 40.4624 114.236 42.3609 116.808 42.3609C117.772 42.3609 119.933 41.9496 119.933 38.6272Z" fill="#333333"></path> <path d="M126.325 37.3256V34.7573C126.301 34.3525 126.178 34.2265 125.763 34.1015C125.662 34.0744 125.441 34.0591 125.256 34.0591C125.127 34.0591 125.034 34.0209 125.034 33.9348C125.034 33.8501 125.141 33.8213 125.326 33.8213C126.001 33.8213 126.814 33.8501 127.078 33.8501C127.523 33.8501 128.686 33.8213 129.073 33.8213C129.886 33.8213 130.816 33.8897 131.51 34.3379C131.872 34.5754 132.411 35.1954 132.411 36.0043C132.411 36.8979 131.889 37.7048 130.639 38.6821C131.769 40.0509 132.674 41.1428 133.447 41.9063C134.157 42.6027 134.617 42.6509 134.82 42.6933C134.947 42.7235 135.019 42.7235 135.12 42.7235C135.215 42.7235 135.283 42.7988 135.283 42.8516C135.283 42.9527 135.196 42.9849 135.029 42.9849H133.817C133.095 42.9849 132.746 42.9103 132.411 42.745C131.861 42.4704 131.382 41.9063 130.664 40.9619C130.151 40.303 129.616 39.4931 129.457 39.3073C129.379 39.2347 129.316 39.2264 129.223 39.2264L128.063 39.1997C128.014 39.1997 127.962 39.2264 127.962 39.2955V39.4639C127.962 40.5901 127.979 41.5323 128.041 42.0448C128.085 42.3979 128.143 42.6326 128.538 42.6895C128.724 42.7183 129.002 42.7235 129.158 42.7235C129.264 42.7235 129.324 42.7988 129.324 42.8516C129.324 42.9426 129.223 42.9849 129.057 42.9849C128.314 42.9849 127.253 42.9426 127.056 42.9426C126.814 42.9426 126.001 42.9849 125.493 42.9849C125.326 42.9849 125.242 42.9426 125.242 42.8516C125.242 42.7988 125.286 42.7235 125.441 42.7235C125.632 42.7235 125.785 42.7183 125.892 42.6895C126.156 42.6326 126.235 42.3979 126.279 42.0448C126.325 41.5323 126.325 40.5714 126.325 39.4639V37.3256ZM127.962 38.2627C127.962 38.3939 127.992 38.4363 128.085 38.4786C128.358 38.5696 128.735 38.5911 129.057 38.5911C129.564 38.5911 129.744 38.5488 129.965 38.3939C130.358 38.1294 130.795 37.5899 130.795 36.589C130.795 34.8802 129.594 34.4504 128.844 34.4504C128.522 34.4504 128.216 34.4639 128.085 34.4931C127.992 34.5198 127.962 34.5653 127.962 34.6621V38.2627Z" fill="#333333"></path> <path d="M139.942 40.0319C139.867 40.0319 139.858 40.0471 139.825 40.109L139.098 41.6865C138.962 41.9708 138.903 42.2631 138.903 42.4161C138.903 42.6146 139.023 42.7316 139.443 42.7316H139.64C139.805 42.7316 139.825 42.7905 139.825 42.8558C139.825 42.9537 139.754 42.9849 139.618 42.9849C139.18 42.9849 138.558 42.9436 138.123 42.9436C137.978 42.9436 137.263 42.9849 136.558 42.9849C136.383 42.9849 136.308 42.9537 136.308 42.8558C136.308 42.7905 136.354 42.7316 136.46 42.7316C136.589 42.7316 136.745 42.7266 136.865 42.7266C137.483 42.6435 137.71 42.2839 137.978 41.6865L141.504 34.2999C141.664 33.9716 141.762 33.8213 141.911 33.8213C142.1 33.8213 142.178 33.9424 142.306 34.2017C142.624 34.8512 144.879 39.6535 145.746 41.4383C146.257 42.5043 146.648 42.6486 146.888 42.6987C147.084 42.7266 147.241 42.7316 147.395 42.7316C147.521 42.7316 147.581 42.7787 147.581 42.8558C147.581 42.9537 147.497 42.9849 146.992 42.9849C146.521 42.9849 145.535 42.9849 144.408 42.9537C144.16 42.9436 144.006 42.9436 144.006 42.8558C144.006 42.7905 144.037 42.7525 144.168 42.7316C144.271 42.7266 144.361 42.6146 144.289 42.4723L143.258 40.109C143.22 40.0471 143.18 40.0319 143.122 40.0319H139.942ZM142.831 39.3774C142.887 39.3774 142.904 39.3515 142.887 39.3175L141.609 36.3275C141.602 36.2916 141.587 36.2216 141.558 36.2216C141.504 36.2216 141.489 36.2916 141.476 36.3275L140.173 39.2973C140.142 39.3515 140.173 39.3774 140.211 39.3774H142.831Z" fill="#333333"></path> <path d="M151.398 34.7181L149.385 34.7706C148.611 34.7706 148.283 34.8518 148.089 35.1279C147.945 35.2952 147.883 35.4442 147.861 35.5257C147.83 35.6361 147.801 35.6797 147.699 35.6797C147.61 35.6797 147.581 35.6095 147.581 35.4837C147.581 35.2952 147.843 34.1359 147.874 34.0425C147.905 33.8925 147.945 33.8213 148.018 33.8213C148.138 33.8213 148.274 33.9188 148.611 33.9737C149.01 33.9999 149.516 34.016 149.956 34.016H155.423C155.849 34.016 156.137 33.9876 156.337 33.9737C156.554 33.9348 156.661 33.9065 156.716 33.9065C156.805 33.9065 156.805 33.9737 156.805 34.1519C156.805 34.4137 156.789 35.2952 156.789 35.5945C156.767 35.7172 156.736 35.7875 156.661 35.7875C156.554 35.7875 156.525 35.7322 156.505 35.5519L156.497 35.4312C156.455 35.1279 156.104 34.7706 154.895 34.7423L153.202 34.7181V39.5278C153.202 40.6152 153.221 41.5587 153.273 42.0728C153.324 42.4085 153.401 42.639 153.801 42.6952C153.981 42.7231 154.278 42.7282 154.491 42.7282C154.639 42.7282 154.699 42.8022 154.699 42.854C154.699 42.9433 154.602 42.9849 154.44 42.9849C153.55 42.9849 152.645 42.9433 152.265 42.9433C151.959 42.9433 151.045 42.9849 150.504 42.9849C150.337 42.9849 150.251 42.9433 150.251 42.854C150.251 42.8022 150.297 42.7282 150.466 42.7282C150.661 42.7282 150.819 42.7231 150.93 42.6952C151.211 42.639 151.287 42.4085 151.331 42.0618C151.398 41.5587 151.398 40.6152 151.398 39.5278V34.7181Z" fill="#333333"></path> <path d="M159.88 38.4038C159.88 36.412 161.456 33.8213 165.585 33.8213C169.015 33.8213 171.153 35.5115 171.153 38.1941C171.153 40.8854 168.952 42.9849 165.446 42.9849C161.487 42.9849 159.88 40.4852 159.88 38.4038ZM169.127 38.6272C169.127 36.0406 167.376 34.4302 165.179 34.4302C163.657 34.4302 161.89 35.1609 161.89 38.0475C161.89 40.4624 163.437 42.3609 166.001 42.3609C166.963 42.3609 169.127 41.9496 169.127 38.6272Z" fill="#333333"></path> <path d="M175.52 37.3256C175.52 35.5002 175.52 35.153 175.508 34.7573C175.489 34.3525 175.364 34.2265 174.958 34.1015C174.857 34.0744 174.636 34.0591 174.452 34.0591C174.321 34.0591 174.228 34.0209 174.228 33.9348C174.228 33.8501 174.327 33.8213 174.521 33.8213C175.187 33.8213 176.008 33.8501 176.274 33.8501C176.709 33.8501 177.881 33.8213 178.268 33.8213C179.081 33.8213 179.999 33.8897 180.705 34.3379C181.066 34.5754 181.606 35.1954 181.606 36.0043C181.606 36.8979 181.076 37.7048 179.816 38.6821C180.962 40.0509 181.868 41.1428 182.633 41.9063C183.347 42.6027 183.805 42.6509 184.008 42.6933C184.132 42.7235 184.215 42.7235 184.308 42.7235C184.411 42.7235 184.476 42.7988 184.476 42.8516C184.476 42.9527 184.383 42.9849 184.225 42.9849H182.998C182.282 42.9849 181.938 42.9103 181.606 42.745C181.045 42.4704 180.567 41.9063 179.845 40.9619C179.349 40.303 178.802 39.4931 178.643 39.3073C178.574 39.2347 178.498 39.2264 178.418 39.2264L177.258 39.1997C177.195 39.1997 177.159 39.2264 177.159 39.2955V39.4639C177.159 40.5901 177.174 41.5323 177.224 42.0448C177.279 42.3979 177.33 42.6326 177.719 42.6895C177.919 42.7183 178.19 42.7235 178.344 42.7235C178.454 42.7235 178.519 42.7988 178.519 42.8516C178.519 42.9426 178.418 42.9849 178.251 42.9849C177.509 42.9849 176.445 42.9426 176.243 42.9426C176.008 42.9426 175.187 42.9849 174.68 42.9849C174.521 42.9849 174.428 42.9426 174.428 42.8516C174.428 42.7988 174.481 42.7235 174.636 42.7235C174.827 42.7235 174.972 42.7183 175.087 42.6895C175.345 42.6326 175.425 42.3979 175.465 42.0448C175.52 41.5323 175.52 40.5714 175.52 39.4639V37.3256ZM177.159 38.2627C177.159 38.3939 177.186 38.4363 177.279 38.4786C177.546 38.5696 177.93 38.5911 178.251 38.5911C178.76 38.5911 178.931 38.5488 179.153 38.3939C179.546 38.1294 179.981 37.5899 179.981 36.589C179.981 34.8802 178.789 34.4504 178.04 34.4504C177.717 34.4504 177.41 34.4639 177.279 34.4931C177.186 34.5198 177.159 34.5653 177.159 34.6621V38.2627Z" fill="#333333"></path> <path d="M187.604 37.3256C187.604 35.5002 187.604 35.153 187.594 34.7573C187.562 34.3525 187.432 34.2139 187.171 34.1272C187.029 34.074 186.877 34.0591 186.725 34.0591C186.593 34.0591 186.526 34.032 186.526 33.9195C186.526 33.8501 186.625 33.8213 186.818 33.8213C187.28 33.8213 188.123 33.8501 188.467 33.8501C188.778 33.8501 189.578 33.8213 190.05 33.8213C190.202 33.8213 190.305 33.8501 190.305 33.9195C190.305 34.032 190.228 34.0591 190.103 34.0591C189.981 34.0591 189.882 34.074 189.736 34.1015C189.406 34.157 189.311 34.3379 189.284 34.7573C189.254 35.153 189.254 35.5002 189.254 37.3256V39.4639C189.254 40.6304 189.254 41.6025 189.311 42.1149C189.343 42.4517 189.442 42.6326 189.799 42.6895C189.961 42.7183 190.243 42.7235 190.421 42.7235C190.569 42.7235 190.626 42.7988 190.626 42.8516C190.626 42.9426 190.526 42.9849 190.391 42.9849C189.578 42.9849 188.735 42.9426 188.401 42.9426C188.123 42.9426 187.28 42.9849 186.794 42.9849C186.636 42.9849 186.553 42.9426 186.553 42.8516C186.553 42.7988 186.593 42.7235 186.751 42.7235C186.929 42.7235 187.076 42.7183 187.181 42.6895C187.432 42.6326 187.505 42.4558 187.541 42.1066C187.604 41.6025 187.604 40.6304 187.604 39.4639V37.3256Z" fill="#333333"></path> <path d="M196.095 37.3754C196.095 35.5739 196.095 35.2312 196.084 34.8406C196.048 34.4411 195.927 34.3168 195.494 34.1934C195.385 34.1663 195.159 34.1516 194.962 34.1516C194.819 34.1516 194.725 34.1139 194.725 34.0289C194.725 33.9454 194.835 33.9169 195.038 33.9169C195.749 33.9169 196.603 33.9454 196.996 33.9454C197.43 33.9454 200.431 33.9587 200.697 33.9454C200.934 33.9292 201.153 33.9029 201.269 33.8761C201.345 33.8638 201.419 33.8213 201.483 33.8213C201.553 33.8213 201.582 33.8761 201.582 33.9292C201.582 34.0139 201.495 34.1516 201.466 34.7039C201.443 34.8303 201.419 35.3546 201.39 35.4892C201.374 35.5471 201.345 35.6972 201.24 35.6972C201.142 35.6972 201.124 35.6318 201.124 35.532C201.124 35.4526 201.113 35.2415 201.032 35.1048C200.923 34.8835 200.818 34.7173 200.143 34.6611C199.906 34.6357 198.29 34.6063 198.018 34.6063C197.948 34.6063 197.919 34.6512 197.919 34.7173V37.6711C197.919 37.7495 197.937 37.8027 198.018 37.8027C198.319 37.8027 200.073 37.8027 200.391 37.7708C200.708 37.7495 200.905 37.7129 201.032 37.5896C201.142 37.4994 201.189 37.4223 201.246 37.4223C201.309 37.4223 201.361 37.4916 201.361 37.5546C201.361 37.6283 201.331 37.826 201.246 38.4297C201.218 38.6723 201.189 39.1513 201.189 39.2307C201.189 39.3308 201.166 39.499 201.05 39.499C200.952 39.499 200.923 39.4572 200.923 39.4041C200.905 39.2719 200.905 39.1197 200.876 38.9721C200.806 38.7213 200.639 38.5428 200.12 38.4978C199.877 38.4715 198.341 38.4448 197.988 38.4448C197.937 38.4448 197.919 38.4978 197.919 38.5743V39.5206C197.919 39.9335 197.903 40.948 197.919 41.3006C197.948 42.1225 198.371 42.3017 199.756 42.3017C200.102 42.3017 200.675 42.2856 201.032 42.1486C201.374 42.004 201.528 41.7491 201.627 41.2536C201.655 41.1354 201.678 41.0744 201.776 41.0744C201.882 41.0744 201.899 41.2252 201.899 41.3557C201.899 41.6168 201.79 42.4384 201.714 42.6728C201.627 42.9849 201.495 42.9849 200.992 42.9849C199.971 42.9849 199.162 42.9705 198.487 42.9421C197.821 42.9288 197.313 42.9188 196.916 42.9188C196.766 42.9188 196.475 42.9288 196.14 42.9288C195.818 42.9421 195.483 42.9606 195.206 42.9606C195.038 42.9606 194.94 42.9188 194.94 42.829C194.94 42.7769 194.987 42.7026 195.159 42.7026C195.356 42.7026 195.512 42.6975 195.633 42.669C195.91 42.6129 195.991 42.3812 196.038 42.0328C196.095 41.527 196.095 40.5786 196.095 39.4857V37.3754Z" fill="#333333"></path> <path d="M206.222 42.6884C206.048 42.6085 205.999 42.5548 205.999 42.2962C205.999 41.654 206.051 40.9183 206.066 40.7358C206.066 40.5549 206.119 40.4301 206.213 40.4301C206.315 40.4301 206.324 40.5321 206.324 40.6267C206.324 40.7767 206.363 41.0193 206.431 41.236C206.673 42.0925 207.533 42.3811 208.247 42.3811C209.234 42.3811 209.826 41.7262 209.826 40.8895C209.826 40.3842 209.715 39.8762 208.7 39.2422L208.038 38.8309C206.692 37.9854 206.247 37.2017 206.247 36.1745C206.247 34.7557 207.548 33.8213 209.132 33.8213C209.869 33.8213 210.452 33.933 210.755 34.0129C210.856 34.039 210.905 34.08 210.905 34.1598C210.905 34.3094 210.866 34.648 210.866 35.5669C210.866 35.8161 210.817 35.9379 210.731 35.9379C210.652 35.9379 210.608 35.8728 210.608 35.7282C210.608 35.6323 210.555 35.272 210.311 34.9576C210.142 34.7557 209.777 34.4044 209.038 34.4044C208.219 34.4044 207.486 34.8637 207.486 35.6642C207.486 36.1895 207.661 36.6009 208.689 37.2017L209.155 37.4852C210.657 38.3649 211.123 39.2543 211.123 40.3174C211.123 41.187 210.817 41.8909 209.992 42.5048C209.437 42.9202 208.689 42.9849 208.082 42.9849C207.412 42.9849 206.713 42.9202 206.222 42.6884Z" fill="#333333"></path> <path d="M78.7627 18.927C78.7627 16.0546 78.7627 15.5384 78.7241 14.929C78.6775 14.2882 78.5355 13.9805 77.9151 13.8431C77.7677 13.8123 77.4447 13.7934 77.1852 13.7934C76.9861 13.7934 76.8652 13.7548 76.8652 13.6259C76.8652 13.4961 76.9991 13.4578 77.2776 13.4578C78.276 13.4578 79.4565 13.5132 79.9706 13.5132C80.7443 13.5132 81.8325 13.4578 82.6989 13.4578C85.0337 13.4578 85.8699 14.2482 86.1849 14.5312C86.5949 14.929 87.1139 15.7749 87.1139 16.7752C87.1139 19.4497 85.1702 21.3343 82.5128 21.3343C82.4145 21.3343 82.2067 21.3343 82.1029 21.3207C82.0101 21.2895 81.8874 21.277 81.8874 21.1472C81.8874 20.9958 82.0101 20.9382 82.4145 20.9382C83.4642 20.9382 84.9215 19.7575 84.9215 17.8261C84.9215 17.2075 84.8695 15.947 83.8144 15.0038C83.1499 14.3766 82.3767 14.2671 81.9472 14.2671C81.6603 14.2671 81.3785 14.2882 81.2091 14.3458C81.1243 14.3766 81.0669 14.4925 81.0669 14.7015V22.2341C81.0669 23.9694 81.0669 25.4632 81.1488 26.2776C81.2091 26.8071 81.3239 27.2136 81.8874 27.2922C82.1463 27.337 82.5624 27.367 82.8358 27.367C83.0488 27.367 83.1499 27.4225 83.1499 27.5245C83.1499 27.6533 82.9942 27.7123 82.7866 27.7123C81.5456 27.7123 80.3697 27.6533 79.8778 27.6533C79.4565 27.6533 78.276 27.7123 77.5212 27.7123C77.2776 27.7123 77.1499 27.6533 77.1499 27.5245C77.1499 27.4225 77.2179 27.367 77.4447 27.367C77.7237 27.367 77.9588 27.337 78.1227 27.2922C78.5032 27.2136 78.5876 26.8071 78.6696 26.2554C78.7627 25.4632 78.7627 23.9694 78.7627 22.2341V18.927Z" fill="#333333"></path> <path d="M102.152 20.7586C102.193 20.7586 102.252 20.7449 102.252 20.6451V20.3069C102.252 17.8446 102.222 17.2623 102.216 16.7493C102.17 16.198 102.017 16.0242 101.446 15.8792C101.303 15.8353 101.01 15.8212 100.764 15.8212C100.559 15.8212 100.465 15.7581 100.465 15.6377C100.465 15.5327 100.588 15.4941 100.84 15.4941C101.783 15.4941 103.043 15.5327 103.505 15.5327C103.918 15.5327 105.084 15.4941 105.76 15.4941C106.027 15.4941 106.15 15.5327 106.15 15.6377C106.15 15.7581 106.027 15.8212 105.819 15.8212C105.687 15.8212 105.52 15.8353 105.306 15.8792C104.838 15.9456 104.691 16.1763 104.662 16.7493C104.624 17.2623 104.624 17.7235 104.624 20.1742V23.0125C104.624 24.4936 104.624 25.7704 104.691 26.4785C104.761 26.9271 104.861 27.2317 105.406 27.3153C105.643 27.3518 106.027 27.3647 106.311 27.3647C106.483 27.3647 106.586 27.4654 106.586 27.5396C106.586 27.6532 106.451 27.7123 106.229 27.7123C105.084 27.7123 103.918 27.6532 103.44 27.6532C103.043 27.6532 101.783 27.7123 101.11 27.7123C100.872 27.7123 100.726 27.6532 100.726 27.5396C100.726 27.4654 100.811 27.3647 101.01 27.3647C101.294 27.3647 101.493 27.3518 101.645 27.3153C102.017 27.2317 102.117 26.9271 102.17 26.4558C102.252 25.7704 102.252 24.5322 102.252 23.0568V21.8154C102.252 21.7567 102.193 21.7253 102.152 21.7253H95.4862C95.4275 21.7253 95.3632 21.7491 95.3632 21.8154V23.0568C95.3632 24.5322 95.387 25.7704 95.4631 26.4785C95.5275 26.9271 95.6269 27.2317 96.1543 27.3153C96.394 27.3518 96.7922 27.3647 97.0591 27.3647C97.2611 27.3647 97.3367 27.4654 97.3367 27.5396C97.3367 27.6532 97.1908 27.7123 96.9745 27.7123C95.8261 27.7123 94.6046 27.6532 94.0984 27.6532C93.6909 27.6532 92.5339 27.7123 91.8371 27.7123C91.6143 27.7123 91.4888 27.6532 91.4888 27.5396C91.4888 27.4654 91.5503 27.3647 91.7731 27.3647C92.0367 27.3647 92.2357 27.3518 92.3936 27.3153C92.7625 27.2317 92.8476 26.9271 92.915 26.4558C92.9939 25.7704 92.9939 24.4936 92.9939 23.0125V20.1742C92.9939 17.7235 92.9939 17.2623 92.9704 16.7493C92.9354 16.198 92.7716 16.0242 92.2122 15.8792C92.0656 15.8353 91.7731 15.8212 91.5152 15.8212C91.3277 15.8212 91.2134 15.7581 91.2134 15.6377C91.2134 15.5327 91.3511 15.4941 91.5912 15.4941C92.5339 15.4941 93.6909 15.5327 94.174 15.5327C94.6046 15.5327 95.8261 15.4941 96.5287 15.4941C96.7747 15.4941 96.8837 15.5327 96.8837 15.6377C96.8837 15.7581 96.7922 15.8212 96.5759 15.8212C96.4293 15.8212 96.2708 15.8353 96.0724 15.8792C95.586 15.9456 95.4397 16.1763 95.41 16.7493C95.3632 17.2623 95.3632 17.8446 95.3632 20.3069V20.6451C95.3632 20.7449 95.4275 20.7586 95.4862 20.7586H102.152Z" fill="#333333"></path> <path d="M113.266 23.7585C113.161 23.7585 113.155 23.7774 113.115 23.8718L112.185 25.972C112.02 26.3676 111.932 26.7464 111.932 26.9296C111.932 27.2119 112.102 27.3752 112.626 27.3752H112.87C113.087 27.3752 113.13 27.4511 113.13 27.5448C113.13 27.6686 113.027 27.7123 112.857 27.7123C112.29 27.7123 111.493 27.655 110.947 27.655C110.776 27.655 109.854 27.7123 108.958 27.7123C108.742 27.7123 108.636 27.6686 108.636 27.5448C108.636 27.4511 108.699 27.3752 108.839 27.3752C108.995 27.3752 109.188 27.3626 109.345 27.3626C110.121 27.2461 110.418 26.7673 110.776 25.972L115.255 16.1167C115.449 15.6774 115.586 15.4941 115.759 15.4941C116.024 15.4941 116.095 15.6347 116.263 15.9946C116.675 16.8532 119.55 23.2664 120.64 25.6433C121.291 27.0628 121.795 27.2678 122.108 27.3273C122.353 27.3626 122.546 27.3752 122.74 27.3752C122.904 27.3752 122.984 27.4287 122.984 27.5448C122.984 27.6686 122.882 27.7123 122.239 27.7123C121.636 27.7123 120.384 27.7123 118.947 27.6686C118.622 27.655 118.428 27.655 118.428 27.5448C118.428 27.4511 118.477 27.4021 118.656 27.3752C118.764 27.3626 118.881 27.2119 118.805 27.0286L117.478 23.8718C117.441 23.7774 117.382 23.7585 117.305 23.7585H113.266ZM116.934 22.8999C117.008 22.8999 117.037 22.8656 117.008 22.8093L115.392 18.8244C115.369 18.7705 115.352 18.6873 115.318 18.6873C115.255 18.6873 115.233 18.7705 115.219 18.8244L113.557 22.7876C113.517 22.8656 113.557 22.8999 113.619 22.8999H116.934Z" fill="#333333"></path> <path d="M127.745 20.1742C127.745 17.7235 127.745 17.2623 127.722 16.7493C127.695 16.198 127.543 16.0242 127.007 15.8792C126.875 15.8353 126.598 15.8212 126.347 15.8212C126.172 15.8212 126.059 15.7581 126.059 15.6377C126.059 15.5327 126.198 15.4941 126.435 15.4941C127.319 15.4941 128.375 15.5327 128.706 15.5327C129.286 15.5327 130.793 15.4941 131.318 15.4941C132.376 15.4941 133.578 15.5883 134.47 16.1763C134.945 16.5026 135.648 17.3157 135.648 18.4082C135.648 19.5969 134.968 20.6642 133.332 21.9755C134.806 23.7888 135.991 25.2551 136.996 26.2669C137.913 27.1964 138.516 27.2768 138.775 27.3345C138.942 27.3647 139.029 27.3647 139.173 27.3647C139.312 27.3647 139.382 27.4654 139.382 27.5396C139.382 27.6673 139.267 27.7123 139.058 27.7123H137.47C136.531 27.7123 136.084 27.6179 135.648 27.3925C134.923 27.0212 134.305 26.2669 133.377 25.0085C132.71 24.1266 132.008 23.0568 131.807 22.8048C131.705 22.7157 131.611 22.6847 131.503 22.6847L130.005 22.6577C129.934 22.6577 129.873 22.6847 129.873 22.7875V23.0125C129.873 24.5149 129.889 25.7704 129.961 26.4558C130.027 26.9271 130.099 27.2317 130.613 27.3153C130.856 27.3518 131.213 27.3647 131.415 27.3647C131.55 27.3647 131.633 27.4654 131.633 27.5396C131.633 27.6532 131.503 27.7123 131.285 27.7123C130.332 27.7123 128.938 27.6532 128.701 27.6532C128.375 27.6532 127.319 27.7123 126.65 27.7123C126.435 27.7123 126.335 27.6532 126.335 27.5396C126.335 27.4654 126.385 27.3647 126.598 27.3647C126.841 27.3647 127.029 27.3518 127.181 27.3153C127.521 27.2317 127.606 26.9271 127.673 26.4558C127.745 25.7704 127.745 24.4936 127.745 23.0125V20.1742ZM129.873 21.4206C129.873 21.5987 129.911 21.6481 130.027 21.6986C130.381 21.8154 130.873 21.8616 131.285 21.8616C131.957 21.8616 132.182 21.8006 132.464 21.5987C132.979 21.2277 133.55 20.5261 133.55 19.1974C133.55 16.9133 131.995 16.3288 131.003 16.3288C130.591 16.3288 130.185 16.3501 130.027 16.3865C129.911 16.423 129.873 16.481 129.873 16.6108V21.4206Z" fill="#333333"></path> <path d="M143.721 15.9024C143.763 15.6461 143.925 15.4941 144.069 15.4941C144.25 15.4941 144.372 15.5663 144.619 15.9858L149.412 24.734L154.185 15.8839C154.332 15.6202 154.496 15.4941 154.657 15.4941C154.799 15.4941 155.005 15.6629 155.062 15.9858L156.679 25.678C156.851 26.6535 157.007 27.0849 157.556 27.2242C158.067 27.3618 158.346 27.3744 158.573 27.3744C158.733 27.3744 158.855 27.4287 158.855 27.5285C158.855 27.6546 158.651 27.7123 158.385 27.7123C157.943 27.7123 155.401 27.6328 154.698 27.5933C154.263 27.5849 154.171 27.4994 154.171 27.4182C154.171 27.345 154.254 27.289 154.373 27.2452C154.473 27.2109 154.52 27.0274 154.448 26.5824L153.464 19.7982H153.395L149.564 26.8012C149.156 27.5442 149.055 27.6931 148.851 27.6931C148.638 27.6931 148.435 27.3744 148.144 26.893C147.72 26.1794 146.302 23.7724 146.103 23.3316C145.954 23.0347 144.901 21.0664 144.314 19.9764H144.25L143.394 26.1041C143.359 26.3782 143.337 26.5824 143.337 26.845C143.337 27.143 143.584 27.2452 143.886 27.3012C144.189 27.3618 144.36 27.3744 144.511 27.3744C144.676 27.3744 144.8 27.4504 144.8 27.5285C144.8 27.6682 144.628 27.7123 144.372 27.7123C143.621 27.7123 142.814 27.6546 142.485 27.6546C142.137 27.6546 141.289 27.7123 140.724 27.7123C140.542 27.7123 140.407 27.6682 140.407 27.5285C140.407 27.4504 140.499 27.3744 140.684 27.3744C140.824 27.3744 140.939 27.3744 141.225 27.345C141.715 27.289 141.88 26.6535 141.958 26.1447L143.721 15.9024Z" fill="#333333"></path> <path d="M164.504 23.7585C164.407 23.7585 164.392 23.7774 164.352 23.8718L163.423 25.972C163.256 26.3676 163.172 26.7464 163.172 26.9296C163.172 27.2119 163.328 27.3752 163.86 27.3752H164.123C164.33 27.3752 164.368 27.4511 164.368 27.5448C164.368 27.6686 164.271 27.7123 164.094 27.7123C163.531 27.7123 162.724 27.655 162.177 27.655C162 27.655 161.091 27.7123 160.18 27.7123C159.97 27.7123 159.88 27.6686 159.88 27.5448C159.88 27.4511 159.93 27.3752 160.074 27.3752C160.231 27.3752 160.416 27.3626 160.575 27.3626C161.356 27.2461 161.649 26.7673 162 25.972L166.505 16.1167C166.697 15.6774 166.83 15.4941 167.004 15.4941C167.258 15.4941 167.337 15.6347 167.512 15.9946C167.931 16.8532 170.797 23.2664 171.889 25.6433C172.551 27.0628 173.043 27.2678 173.359 27.3273C173.612 27.3626 173.804 27.3752 174.007 27.3752C174.164 27.3752 174.228 27.4287 174.228 27.5448C174.228 27.6686 174.142 27.7123 173.491 27.7123C172.886 27.7123 171.637 27.7123 170.192 27.6686C169.884 27.655 169.683 27.655 169.683 27.5448C169.683 27.4511 169.72 27.4021 169.89 27.3752C170.02 27.3626 170.139 27.2119 170.055 27.0286L168.728 23.8718C168.679 23.7774 168.624 23.7585 168.549 23.7585H164.504ZM168.18 22.8999C168.266 22.8999 168.273 22.8656 168.266 22.8093L166.636 18.8244C166.614 18.7705 166.594 18.6873 166.556 18.6873C166.505 18.6873 166.481 18.7705 166.459 18.8244L164.8 22.7876C164.754 22.8656 164.8 22.8999 164.86 22.8999H168.18Z" fill="#333333"></path> <path d="M181.161 22.9945C181.161 25.0601 181.161 26.0812 181.531 26.3959C181.816 26.639 182.473 26.7329 183.769 26.7329C184.687 26.7329 185.331 26.7106 185.758 26.2686C185.96 26.0725 186.14 25.6104 186.179 25.3118C186.201 25.1629 186.234 25.0601 186.368 25.0601C186.481 25.0601 186.526 25.2313 186.526 25.4219C186.526 25.6104 186.414 26.7962 186.275 27.2864C186.156 27.6375 186.084 27.7123 185.203 27.7123C183.992 27.7123 183.005 27.7037 182.165 27.663C181.312 27.6375 180.605 27.6235 179.917 27.6235C179.715 27.6235 179.351 27.6375 178.954 27.6375C178.55 27.663 178.121 27.6825 177.778 27.6825C177.574 27.6825 177.457 27.6235 177.457 27.5102C177.457 27.4361 177.515 27.3357 177.728 27.3357C177.977 27.3357 178.168 27.3228 178.311 27.2864C178.659 27.203 178.763 26.8991 178.821 26.429C178.893 25.7453 178.893 24.4716 178.893 22.9945V20.1627C178.893 17.718 178.893 17.258 178.88 16.7462C178.835 16.1962 178.689 16.0229 178.151 15.8783C178.014 15.8344 177.802 15.82 177.578 15.82C177.398 15.82 177.302 15.7574 177.302 15.6373C177.302 15.5326 177.419 15.4941 177.661 15.4941C178.455 15.4941 179.524 15.5326 179.987 15.5326C180.386 15.5326 181.777 15.4941 182.434 15.4941C182.686 15.4941 182.799 15.5326 182.799 15.6373C182.799 15.7574 182.697 15.82 182.488 15.82C182.3 15.82 182.031 15.8344 181.839 15.8783C181.373 15.9445 181.239 16.166 181.199 16.7462C181.161 17.258 181.161 17.718 181.161 20.1627V22.9945Z" fill="#333333"></path> <path d="M193.678 23.5151C193.678 22.6353 193.536 22.2971 193.327 21.8154C193.212 21.5692 191.043 18.0195 190.503 17.1635C190.106 16.5863 189.78 16.198 189.471 16.0242C189.283 15.9102 189.006 15.8212 188.807 15.8212C188.691 15.8212 188.576 15.7581 188.576 15.6377C188.576 15.5327 188.691 15.4941 188.886 15.4941C189.151 15.4941 190.336 15.5327 190.86 15.5327C191.195 15.5327 191.939 15.4941 192.656 15.4941C192.803 15.4941 192.891 15.5327 192.891 15.6377C192.891 15.7772 192.782 15.7772 192.525 15.8565C192.405 15.8951 192.306 15.965 192.306 16.1035C192.306 16.2344 192.385 16.423 192.514 16.6472C192.803 17.1462 194.856 20.9231 195.134 21.3799C195.338 21.0024 197.256 17.54 197.485 17.0464C197.643 16.6912 197.722 16.4082 197.722 16.198C197.722 16.0458 197.643 15.8951 197.376 15.8353C197.234 15.7902 197.088 15.7772 197.088 15.6377C197.088 15.5327 197.183 15.4941 197.365 15.4941C197.878 15.4941 198.44 15.5327 198.9 15.5327C199.24 15.5327 200.282 15.4941 200.587 15.4941C200.771 15.4941 200.874 15.5327 200.874 15.6323C200.874 15.7408 200.755 15.8212 200.57 15.8212C200.414 15.8212 200.12 15.8951 199.885 16.009C199.549 16.1763 199.409 16.3288 199.062 16.7749C198.549 17.4102 196.281 21.2403 195.999 21.9315C195.758 22.5192 195.794 23.0128 195.794 23.5504V24.8423C195.794 25.103 195.794 25.7704 195.825 26.4558C195.874 26.9271 196.013 27.2317 196.479 27.3153C196.711 27.3518 197.057 27.3647 197.266 27.3647C197.444 27.3647 197.544 27.4654 197.544 27.5396C197.544 27.6532 197.412 27.7123 197.193 27.7123C196.208 27.7123 195.144 27.6532 194.714 27.6532C194.323 27.6532 193.269 27.7123 192.673 27.7123C192.452 27.7123 192.336 27.6673 192.336 27.5396C192.336 27.4654 192.405 27.3647 192.588 27.3647C192.803 27.3647 192.991 27.3518 193.139 27.3153C193.457 27.2317 193.589 26.9271 193.609 26.4558C193.678 25.7704 193.678 25.103 193.678 24.8423V23.5151Z" fill="#333333"></path> <path d="M204.293 27.2982C204.003 27.2008 203.949 27.1264 203.949 26.7732C203.949 25.9253 204.033 24.9563 204.045 24.6974C204.045 24.4591 204.129 24.3008 204.274 24.3008C204.446 24.3008 204.462 24.4406 204.462 24.5503C204.462 24.7555 204.53 25.0763 204.634 25.363C205.028 26.5133 206.402 26.9016 207.549 26.9016C209.123 26.9016 210.07 26.0165 210.07 24.9212C210.07 24.2399 209.887 23.5625 208.269 22.7218L207.202 22.1693C205.044 21.0479 204.335 20.0093 204.335 18.6343C204.335 16.7272 206.421 15.4941 208.942 15.4941C210.143 15.4941 211.069 15.641 211.547 15.7561C211.716 15.7996 211.803 15.8522 211.803 15.9569C211.803 16.1545 211.731 16.6013 211.731 17.8267C211.731 18.1559 211.651 18.3194 211.498 18.3194C211.379 18.3194 211.318 18.2223 211.318 18.0463C211.318 17.8959 211.238 17.4252 210.844 17.0129C210.579 16.7272 209.99 16.2944 208.808 16.2944C207.499 16.2944 206.317 16.8876 206.317 17.9533C206.317 18.6531 206.608 19.2017 208.245 20.0093L208.991 20.3736C211.402 21.5458 212.148 22.7281 212.148 24.1508C212.148 25.3074 211.651 26.2402 210.323 27.0672C209.451 27.6128 208.245 27.7123 207.27 27.7123C206.202 27.7123 205.088 27.6128 204.293 27.2982Z" fill="#333333"></path> <path d="M34.9642 49.855C33.8276 49.044 32.8974 48.0939 32.1684 47.0036C31.4327 45.9156 31.0734 45.0531 31.0734 44.41V31.5637H13.8641C13.2193 31.5637 12.6284 31.8529 12.0864 32.4317C11.5457 32.9988 11.2734 33.5444 11.2734 34.0508L11.3085 35.3522H26.569V41.2858H11.3085V50.4568C16.1421 53.9337 22.145 56.0001 28.6561 56.0001C34.771 56.0001 40.4379 54.1758 45.0941 51.0766H38.4636C37.2655 51.0766 36.0982 50.6661 34.9642 49.855Z" fill="#B9D261"></path> <path d="M28.1846 0C17.9356 0 8.97255 5.42209 4.03374 13.5342C5.00468 14.8877 6.94949 15.3597 8.06435 16.8997C9.87305 19.4085 8.26487 22.4232 6.45958 24.8025C7.89218 22.0804 6.85527 18.8251 4.81136 16.7877C6.34129 19.8654 6.26189 23.53 4.57605 26.4534L4.53738 25.6936C3.40157 23.4347 1.43395 22.1231 1.62416 19.1861C1.64393 18.8599 1.68905 18.5389 1.75764 18.225C0.620474 21.2578 0 24.5371 0 27.9592C0 33.0813 1.39352 37.8701 3.815 41.9964V31.9121C3.815 30.8996 4.19537 29.8517 4.95683 28.7664C5.7103 27.6819 6.69168 26.788 7.88457 26.0641C9.08186 25.3503 10.2866 24.9922 11.5029 24.9922H30.5505H37.7827V40.5505C37.7827 41.4172 38.0217 42.1772 38.51 42.8278C38.9808 43.4785 39.5537 43.9698 40.1997 44.3035C40.8457 44.6326 41.3873 44.8 41.8117 44.8H50.684C54.2464 40.1126 56.3678 34.2826 56.3678 27.9592C56.3678 12.5211 43.7532 0 28.1846 0ZM13.8046 23.0617C18.3207 21.4146 20.315 16.4271 19.8266 11.7698C18.6339 17.0881 14.8398 21.3389 9.81157 22.9369L10.5305 22.0056C11.397 18.0774 10.2866 14.355 13.4719 11.0914C16.3099 8.17974 20.6794 7.60224 23.4888 4.00467C20.1623 7.69428 23.9805 11.2663 23.745 15.4916C23.4657 20.4652 18.4406 22.2433 13.8046 23.0617Z" fill="#00B2FF"></path> </svg> 