<svg id="Calque_1" data-name="Calque 1" xmlns="http://www.w3.org/2000/svg" viewBox="0 0 356.86 300"><defs><style>.cls-1{fill:#282846;}</style></defs><path class="cls-1" d="M343,0H14.11A13.88,13.88,0,0,0,.24,13.87V232.32a13.88,13.88,0,0,0,13.87,13.87h135v42.66H115.79a5.34,5.34,0,1,0,0,10.67H251.53a5.34,5.34,0,1,0,0-10.67H208V246.19H343a13.88,13.88,0,0,0,13.87-13.87V13.87A13.88,13.88,0,0,0,343,0ZM130.25,138.33H163a2.14,2.14,0,0,1,0,4.27H130.25a2.14,2.14,0,0,1,0-4.27Zm-2.13-7.47a2.13,2.13,0,0,1,2.13-2.13h26.58a2.14,2.14,0,1,1,0,4.27H130.25A2.13,2.13,0,0,1,128.12,130.86ZM163,123.39H130.25a2.14,2.14,0,0,1,0-4.27H163a2.14,2.14,0,0,1,0,4.27Zm-32.78-9.6a2.14,2.14,0,0,1,0-4.27H170a2.14,2.14,0,0,1,0,4.27ZM179.1,90.31a2.14,2.14,0,1,1,0,4.27H152.52a2.14,2.14,0,0,1,0-4.27ZM167.78,73.23a2.13,2.13,0,0,1,2.14-2.13h10.16a2.14,2.14,0,1,1,0,4.27H169.92A2.14,2.14,0,0,1,167.78,73.23Zm-2,26.68h32.92a2.14,2.14,0,1,1,0,4.27H165.81a2.14,2.14,0,0,1,0-4.27ZM185.17,85H175a2.14,2.14,0,0,1,0-4.27h10.17a2.14,2.14,0,0,1,0,4.27Zm-6.33-19.21a2.14,2.14,0,1,1,0-4.27h39.77a2.14,2.14,0,1,1,0,4.27Zm20.33-19.21H167a2.14,2.14,0,0,1,0-4.27h32.2a2.14,2.14,0,0,1,0,4.27ZM179.1,37H152.52a2.14,2.14,0,0,1,0-4.27H179.1a2.14,2.14,0,1,1,0,4.27Zm-22.27-9.61H130.25a2.14,2.14,0,0,1,0-4.27h26.58a2.14,2.14,0,1,1,0,4.27Zm-26.58,5.34h10.17a2.14,2.14,0,0,1,0,4.27H130.25a2.14,2.14,0,0,1,0-4.27Zm0,9.6h23a2.14,2.14,0,1,1,0,4.27h-23a2.14,2.14,0,0,1,0-4.27Zm0,9.61H170a2.14,2.14,0,0,1,0,4.27H130.25a2.14,2.14,0,0,1,0-4.27Zm0,9.6H163a2.14,2.14,0,0,1,0,4.27H130.25a2.14,2.14,0,0,1,0-4.27Zm0,9.61h26.58a2.14,2.14,0,1,1,0,4.27H130.25a2.14,2.14,0,0,1,0-4.27Zm0,9.6H162A2.14,2.14,0,1,1,162,85H130.25a2.14,2.14,0,0,1,0-4.27Zm0,9.61h10.17a2.14,2.14,0,0,1,0,4.27H130.25a2.14,2.14,0,0,1,0-4.27Zm0,9.6h23a2.14,2.14,0,1,1,0,4.27h-23a2.14,2.14,0,0,1,0-4.27Zm39.67,28.82h10.16a2.14,2.14,0,1,1,0,4.27H169.92a2.14,2.14,0,1,1,0-4.27Zm12.22-17.08a2.13,2.13,0,0,1,2.14-2.13h34.33a2.14,2.14,0,1,1,0,4.27H184.28A2.14,2.14,0,0,1,182.14,111.65Zm9.92,17.08h32.77a2.14,2.14,0,1,1,0,4.27H192.06a2.14,2.14,0,1,1,0-4.27ZM224.83,85H198.25a2.14,2.14,0,0,1,0-4.27h26.58a2.14,2.14,0,1,1,0,4.27Zm0-38.42H212.52a2.14,2.14,0,1,1,0-4.27h12.31a2.14,2.14,0,1,1,0,4.27ZM107.37,20.2V164.69a2.14,2.14,0,0,1-4.27,0V20.2a2.14,2.14,0,1,1,4.27,0ZM27.65,142.6a2.14,2.14,0,1,1,0-4.27H60.42a2.14,2.14,0,1,1,0,4.27Zm25.14,7.47a2.13,2.13,0,0,1-2.13,2.14h-23a2.14,2.14,0,1,1,0-4.27h23A2.13,2.13,0,0,1,52.79,150.07ZM25.51,130.86a2.13,2.13,0,0,1,2.14-2.13H54.23a2.14,2.14,0,0,1,0,4.27H27.65A2.14,2.14,0,0,1,25.51,130.86Zm34.91-7.47H27.65a2.14,2.14,0,1,1,0-4.27H60.42a2.14,2.14,0,1,1,0,4.27Zm-32.77-9.6a2.14,2.14,0,1,1,0-4.27H67.43a2.14,2.14,0,0,1,0,4.27ZM54.23,27.34H27.65a2.14,2.14,0,1,1,0-4.27H54.23a2.14,2.14,0,0,1,0,4.27ZM76.5,32.68a2.14,2.14,0,0,1,0,4.27H49.92a2.14,2.14,0,0,1,0-4.27Zm-48.85,0H37.82a2.14,2.14,0,0,1,0,4.27H27.65a2.14,2.14,0,1,1,0-4.27Zm0,9.6h23a2.14,2.14,0,0,1,0,4.27h-23a2.14,2.14,0,1,1,0-4.27Zm0,9.61H67.43a2.14,2.14,0,0,1,0,4.27H27.65a2.14,2.14,0,1,1,0-4.27Zm0,9.6H60.42a2.14,2.14,0,1,1,0,4.27H27.65a2.14,2.14,0,1,1,0-4.27ZM76.5,90.31a2.14,2.14,0,0,1,0,4.27H49.92a2.14,2.14,0,0,1,0-4.27ZM27.65,71.1H54.23a2.14,2.14,0,0,1,0,4.27H27.65a2.14,2.14,0,1,1,0-4.27Zm0,9.6H54.23a2.14,2.14,0,0,1,0,4.27H27.65a2.14,2.14,0,1,1,0-4.27Zm0,9.61H37.82a2.14,2.14,0,0,1,0,4.27H27.65a2.14,2.14,0,1,1,0-4.27Zm0,9.6h23a2.14,2.14,0,0,1,0,4.27h-23a2.14,2.14,0,1,1,0-4.27Zm39.66,28.82H77.48a2.14,2.14,0,0,1,0,4.27H67.31a2.14,2.14,0,0,1,0-4.27ZM77.48,75.37H67.31a2.14,2.14,0,0,1,0-4.27H77.48a2.14,2.14,0,0,1,0,4.27Zm82.26,213.48V246.19h37.62v42.66ZM343,235.52H14.11a3.2,3.2,0,0,1-3.2-3.2v-52H346.19v52A3.2,3.2,0,0,1,343,235.52Z"/><path class="cls-1" d="M178.55,192.53a14.63,14.63,0,1,0,14.62,14.62A14.64,14.64,0,0,0,178.55,192.53Zm0,25a10.36,10.36,0,1,1,10.35-10.36A10.37,10.37,0,0,1,178.55,217.51Z"/></svg>