<svg id="Calque_1" data-name="Calque 1" xmlns="http://www.w3.org/2000/svg" viewBox="0 0 115.26 100"><defs><style>.cls-1{fill:#fff;}</style></defs><polygon class="cls-1" points="102.27 22.49 115.26 14.67 110.11 12.68 110.11 5.81 96.38 12.68 96.38 18.88 65.47 38.4 64.02 29.45 49.83 49.82 74.32 45.76 66.86 40.6 98.22 20.8 102.27 22.49"/><path class="cls-1" d="M92.07,50.17a42.28,42.28,0,1,1-11.53-29l6.51-4.11A49.73,49.73,0,1,0,95.34,29.9L88.85,34A42.08,42.08,0,0,1,92.07,50.17Z"/><path class="cls-1" d="M78.3,42.08a6.36,6.36,0,0,1,1.32,5.42,7.41,7.41,0,0,1-.25.8c0,.62.06,1.24.06,1.87A29.6,29.6,0,1,1,62.67,23.5c.16,0,.31,0,.47,0a6.14,6.14,0,0,1,1.4.16,6.33,6.33,0,0,1,4.56,4.09l.46.4,3.87-2.44a33.83,33.83,0,1,0,8.36,12.78l-3.85,2.43C78.07,41.28,78.19,41.68,78.3,42.08Z"/><path class="cls-1" d="M27.48,50.17A22.35,22.35,0,0,0,72,52.76l-4.6.76a17.92,17.92,0,1,1-17.6-21.27,17.33,17.33,0,0,1,3.63.37l2.7-3.88a22,22,0,0,0-6.33-.92A22.37,22.37,0,0,0,27.48,50.17Z"/><path class="cls-1" d="M49,56.5a6.33,6.33,0,0,1-5.19-10l4.74-6.8A10.51,10.51,0,1,0,59.22,54.88L50,56.41A6.09,6.09,0,0,1,49,56.5Z"/></svg>