<svg id="Calque_1" data-name="Calque 1" xmlns="http://www.w3.org/2000/svg" viewBox="0 0 128.37 100"><defs><style>.cls-1{fill:#fff;}</style></defs><path class="cls-1" d="M114.89.08H13.48A13.49,13.49,0,0,0,0,13.56v73A13.5,13.5,0,0,0,13.48,100H114.89a13.5,13.5,0,0,0,13.48-13.48v-73A13.49,13.49,0,0,0,114.89.08Zm4.49,86.44A4.49,4.49,0,0,1,114.89,91H13.48A4.49,4.49,0,0,1,9,86.52v-73a4.5,4.5,0,0,1,4.49-4.5H114.89a4.5,4.5,0,0,1,4.49,4.5Z"/><path class="cls-1" d="M111.25,17.66,64.81,69.78l-47-52.13a2.62,2.62,0,0,0-3.9,3.51L36.79,46.53,26.27,63.71a2.62,2.62,0,1,0,4.47,2.73l9.71-15.85L62.88,75.46a2.57,2.57,0,0,0,1.94.87h0a2.6,2.6,0,0,0,2-.88L88.63,50.93l9.49,15.51a2.62,2.62,0,1,0,4.47-2.73L92.27,46.85l22.9-25.71a2.62,2.62,0,0,0-3.92-3.48Z"/></svg>